# xmcd
#
# Track frame offsets: 
#        151
#        15426
#        32899
#        63670
#        81469
#        102506
#        121703
#        137040
#        155459
#        185394
#        207285
#        229364
#        252941
#        271972
#        289829
#        307868
#
# Disc length: 4370 seconds
#
# Revision: 0
# Processed by: cddbd v1.5.2PL0 Copyright (c) Steve Scherf et al.
# Submitted via: ExactAudioCopy v0.99pb5
#
DISCID=e1111010
DTITLE=Various Artist - Nothing gonna chanhe my lvoe for you  此情永不移
DYEAR=1900
DGENRE=Country
TTITLE0=BECAUSE I LOVE YOU  因為我愛你
TTITLE1=Nothing gonna chanhe my lvoe for you  此情永不移
TTITLE2=Last christmas 去年聖誕
TTITLE3=Saving All my love for you 全心全意愛你
TTITLE4=CASABLANCE  卡薩布蘭卡
TTITLE5=Alasca 阿拉斯加
TTITLE6=Aainese All odds 再看我一眼
TTITLE7=Say you say me 飛越蘇聯主題曲
TTITLE8=I DO IT FOR YOU  一切為你
TTITLE9=CHELIY CHELIY  雪莉女士
TTITLE10=BILLIE JEAN  比利珍
TTITLE11=The final countdown 最後倒數
TTITLE12=TAKE MY BREATH AWAY  帶走我的氣息
TTITLE13=LOST IN LOVE  迷失的愛
TTITLE14=Yesterday one more 昨日重現
TTITLE15=SAILING  航行
EXTD=
EXTT0=
EXTT1=
EXTT2=
EXTT3=
EXTT4=
EXTT5=
EXTT6=
EXTT7=
EXTT8=
EXTT9=
EXTT10=
EXTT11=
EXTT12=
EXTT13=
EXTT14=
EXTT15=
PLAYORDER=
